<svg width="14" height="14" viewBox="0 0 14 14" fill="none" xmlns="http://www.w3.org/2000/svg">
<path d="M7.27549 10.9227L10.4255 12.9227C10.8317 13.1789 11.3317 12.7977 11.213 12.3289L10.3005 8.74142C10.2758 8.64198 10.2797 8.53759 10.3118 8.44029C10.3439 8.34298 10.4028 8.25671 10.4817 8.19142L13.3067 5.83517C13.6755 5.52892 13.488 4.91017 13.0067 4.87892L9.31924 4.64142C9.21862 4.63557 9.12189 4.60053 9.04087 4.5406C8.95984 4.48066 8.89803 4.39842 8.86299 4.30392L7.48799 0.841422C7.45159 0.741361 7.38528 0.654924 7.29807 0.593844C7.21086 0.532764 7.10696 0.5 7.00049 0.5C6.89401 0.5 6.79012 0.532764 6.7029 0.593844C6.61569 0.654924 6.54938 0.741361 6.51299 0.841422L5.13799 4.30392C5.10294 4.39842 5.04113 4.48066 4.96011 4.5406C4.87908 4.60053 4.78235 4.63557 4.68174 4.64142L0.994236 4.87892C0.512986 4.91017 0.325486 5.52892 0.694236 5.83517L3.51924 8.19142C3.5982 8.25671 3.6571 8.34298 3.68917 8.44029C3.72124 8.53759 3.72516 8.64198 3.70049 8.74142L2.85674 12.0664C2.71299 12.6289 3.31299 13.0852 3.79424 12.7789L6.72549 10.9227C6.80768 10.8704 6.90308 10.8426 7.00049 10.8426C7.0979 10.8426 7.19329 10.8704 7.27549 10.9227Z" fill="#1A1A1A" stroke="#1A1A1A" stroke-linecap="round" stroke-linejoin="round"/>
</svg>
