<svg width="15" height="15" viewBox="0 0 15 15" fill="none" xmlns="http://www.w3.org/2000/svg">
<path d="M7.78499 11.5579L11.0436 13.6269C11.4639 13.892 11.9811 13.4976 11.8583 13.0127L10.9143 9.30147C10.8888 9.1986 10.8928 9.09061 10.926 8.98995C10.9592 8.88929 11.0201 8.80004 11.1018 8.73251L14.0242 6.29501C14.4057 5.97819 14.2117 5.33811 13.7139 5.30578L9.89921 5.06009C9.79513 5.05404 9.69506 5.01779 9.61124 4.95579C9.52742 4.89378 9.46348 4.80871 9.42723 4.71095L8.00481 1.12906C7.96716 1.02555 7.89857 0.936128 7.80835 0.872942C7.71813 0.809756 7.61065 0.775862 7.5005 0.775862C7.39036 0.775862 7.28288 0.809756 7.19266 0.872942C7.10244 0.936128 7.03384 1.02555 6.99619 1.12906L5.57378 4.71095C5.53753 4.80871 5.47358 4.89378 5.38976 4.95579C5.30594 5.01779 5.20588 5.05404 5.1018 5.06009L1.28714 5.30578C0.789295 5.33811 0.59533 5.97819 0.976795 6.29501L3.89921 8.73251C3.98089 8.80004 4.04183 8.88929 4.075 8.98995C4.10818 9.09061 4.11223 9.1986 4.08671 9.30147L3.21386 12.7411C3.06516 13.323 3.68585 13.795 4.18369 13.4782L7.21602 11.5579C7.30105 11.5039 7.39973 11.4751 7.5005 11.4751C7.60127 11.4751 7.69995 11.5039 7.78499 11.5579V11.5579Z" stroke="#6E6E6E" stroke-width="1.5" stroke-linecap="round" stroke-linejoin="round"/>
</svg>
