<svg width="20" height="20" viewBox="0 0 20 20" fill="none" xmlns="http://www.w3.org/2000/svg">
<path d="M6.1626 10.0616C6.96574 11.7201 8.30687 13.0578 9.96748 13.8567C10.09 13.9147 10.2255 13.9398 10.3606 13.9295C10.4957 13.9193 10.6259 13.874 10.7382 13.7982L13.1772 12.1689C13.285 12.0958 13.4095 12.0512 13.5392 12.0393C13.6688 12.0273 13.7994 12.0484 13.9187 12.1006L18.4846 14.0616C18.6406 14.1265 18.771 14.241 18.8556 14.3873C18.9402 14.5336 18.9744 14.7037 18.9528 14.8713C18.8081 16.0008 18.2568 17.0389 17.4021 17.7913C16.5473 18.5437 15.4477 18.9589 14.3089 18.9591C10.79 18.9591 7.41513 17.5612 4.92684 15.0729C2.43856 12.5846 1.04065 9.2098 1.04065 5.69083C1.04091 4.5521 1.45608 3.45248 2.20848 2.59772C2.96088 1.74296 3.99895 1.19165 5.12846 1.04693C5.2961 1.0254 5.46618 1.05957 5.6125 1.14419C5.75882 1.22881 5.87326 1.35918 5.93821 1.51523L7.89919 6.09083C7.95018 6.20825 7.97151 6.3364 7.96131 6.464C7.9511 6.5916 7.90966 6.71473 7.84065 6.82254L6.21138 9.30059C6.13885 9.41267 6.09627 9.54149 6.08773 9.67472C6.07919 9.80795 6.10497 9.94114 6.1626 10.0616V10.0616Z" stroke="#1A1A1A" stroke-width="2" stroke-linecap="round" stroke-linejoin="round"/>
</svg>
