<svg width="22" height="22" viewBox="0 0 22 22" fill="none" xmlns="http://www.w3.org/2000/svg">
<path d="M11.4171 16.9403L16.1861 19.9683C16.8012 20.3562 17.5582 19.779 17.3784 19.0694L15.9969 13.638C15.9595 13.4874 15.9654 13.3294 16.014 13.182C16.0625 13.0347 16.1517 12.9041 16.2713 12.8053L20.5483 9.23795C21.1065 8.7743 20.8227 7.83752 20.0941 7.79021L14.5113 7.43064C14.3589 7.42178 14.2125 7.36873 14.0898 7.27799C13.9672 7.18725 13.8736 7.06274 13.8205 6.91967L11.7388 1.67752C11.6837 1.52603 11.5833 1.39517 11.4513 1.3027C11.3192 1.21022 11.1619 1.16062 11.0007 1.16062C10.8395 1.16062 10.6822 1.21022 10.5502 1.3027C10.4182 1.39517 10.3178 1.52603 10.2627 1.67752L8.18095 6.91967C8.12789 7.06274 8.03431 7.18725 7.91164 7.27799C7.78897 7.36873 7.64253 7.42178 7.4902 7.43064L1.9074 7.79021C1.1788 7.83752 0.894929 8.7743 1.45321 9.23795L5.7302 12.8053C5.84974 12.9041 5.93892 13.0347 5.98747 13.182C6.03602 13.3294 6.04196 13.4874 6.00461 13.638L4.72719 18.6719C4.50955 19.5235 5.41794 20.2143 6.14654 19.7506L10.5844 16.9403C10.7088 16.8612 10.8533 16.8192 11.0007 16.8192C11.1482 16.8192 11.2926 16.8612 11.4171 16.9403V16.9403Z" stroke="#1A1A1A" stroke-width="2.3" stroke-linecap="round" stroke-linejoin="round"/>
</svg>
