<svg width="21" height="21" viewBox="0 0 21 21" fill="none" xmlns="http://www.w3.org/2000/svg">
<path d="M10.9132 16.384L15.6382 19.384C16.2476 19.7684 16.9976 19.1965 16.8195 18.4934L15.4507 13.1121C15.4137 12.963 15.4196 12.8064 15.4677 12.6604C15.5158 12.5145 15.6042 12.3851 15.7226 12.2871L19.9601 8.75276C20.5132 8.29338 20.232 7.36526 19.5101 7.31838L13.9789 6.96213C13.8279 6.95335 13.6828 6.9008 13.5613 6.81089C13.4398 6.72099 13.347 6.59763 13.2945 6.45588L11.232 1.26213C11.1774 1.11204 11.0779 0.982386 10.9471 0.890766C10.8163 0.799146 10.6604 0.75 10.5007 0.75C10.341 0.75 10.1852 0.799146 10.0544 0.890766C9.92353 0.982386 9.82407 1.11204 9.76948 1.26213L7.70698 6.45588C7.65441 6.59763 7.5617 6.72099 7.44016 6.81089C7.31862 6.9008 7.17353 6.95335 7.0226 6.96213L1.49135 7.31838C0.769478 7.36526 0.488228 8.29338 1.04135 8.75276L5.27885 12.2871C5.39729 12.3851 5.48565 12.5145 5.53375 12.6604C5.58186 12.8064 5.58774 12.963 5.55073 13.1121L4.2851 18.0996C4.06948 18.9434 4.96948 19.6278 5.69135 19.1684L10.0882 16.384C10.2115 16.3056 10.3546 16.264 10.5007 16.264C10.6468 16.264 10.7899 16.3056 10.9132 16.384Z" fill="#1A1A1A" stroke="#1A1A1A" stroke-width="1.5" stroke-linecap="round" stroke-linejoin="round"/>
</svg>
